<svg width="800" height="800" viewBox="0 0 800 800" fill="none" xmlns="http://www.w3.org/2000/svg">
<circle cx="400" cy="400" r="400" fill="#FFF173"/>
<path d="M129.358 403.659V375.108C145.741 375.108 157.104 371.841 163.449 365.307C169.794 358.773 172.966 348.214 172.966 333.631V302.239C172.966 284.72 175.381 270.705 180.21 260.193C185.134 249.587 191.953 241.585 200.665 236.188C209.472 230.79 219.888 227.191 231.915 225.392C243.941 223.593 257.104 222.693 271.403 222.693V267.864C260.229 267.864 251.706 269.331 245.835 272.267C240.059 275.108 236.129 279.559 234.045 285.619C231.962 291.585 230.92 299.161 230.92 308.347V349.824C230.92 357.021 229.595 363.886 226.943 370.42C224.292 376.86 219.367 382.589 212.17 387.608C204.973 392.532 194.699 396.462 181.347 399.398C167.994 402.239 150.665 403.659 129.358 403.659ZM271.403 582.21C257.104 582.21 243.941 581.311 231.915 579.511C219.888 577.712 209.472 574.114 200.665 568.716C191.953 563.318 185.134 555.316 180.21 544.71C175.381 534.199 172.966 520.184 172.966 502.665V471.131C172.966 456.547 169.794 445.989 163.449 439.455C157.104 432.92 145.741 429.653 129.358 429.653V401.102C150.665 401.102 167.994 402.57 181.347 405.506C194.699 408.347 204.973 412.277 212.17 417.295C219.367 422.22 224.292 427.949 226.943 434.483C229.595 440.922 230.92 447.788 230.92 455.08V496.557C230.92 505.648 231.962 513.176 234.045 519.142C236.129 525.203 240.059 529.653 245.835 532.494C251.706 535.43 260.229 536.898 271.403 536.898V582.21ZM129.358 429.653V375.108H180.352V429.653H129.358ZM402.298 523.261C379.855 523.261 360.537 518.716 344.344 509.625C328.245 500.439 315.84 487.466 307.128 470.705C298.416 453.848 294.06 433.915 294.06 410.903C294.06 388.46 298.416 368.763 307.128 351.812C315.84 334.862 328.103 321.652 343.918 312.182C359.827 302.712 378.482 297.977 399.884 297.977C414.277 297.977 427.677 300.297 440.082 304.938C452.582 309.483 463.473 316.348 472.753 325.534C482.128 334.72 489.42 346.273 494.628 360.193C499.836 374.019 502.44 390.212 502.44 408.773V425.392H318.207V387.892H445.48C445.48 379.18 443.586 371.462 439.798 364.739C436.01 358.015 430.755 352.759 424.031 348.972C417.402 345.089 409.685 343.148 400.878 343.148C391.692 343.148 383.548 345.278 376.446 349.54C369.438 353.706 363.946 359.341 359.969 366.443C355.991 373.451 353.955 381.263 353.861 389.881V425.534C353.861 436.33 355.849 445.657 359.827 453.517C363.899 461.377 369.628 467.438 377.014 471.699C384.401 475.96 393.16 478.091 403.293 478.091C410.016 478.091 416.171 477.144 421.759 475.25C427.346 473.356 432.128 470.515 436.105 466.727C440.082 462.939 443.113 458.299 445.196 452.807L501.162 456.5C498.321 469.947 492.497 481.689 483.69 491.727C474.978 501.67 463.709 509.436 449.884 515.023C436.152 520.515 420.291 523.261 402.298 523.261ZM669.06 401.102V429.653C652.772 429.653 641.408 432.92 634.969 439.455C628.624 445.989 625.452 456.547 625.452 471.131V502.665C625.452 520.184 622.99 534.199 618.065 544.71C613.236 555.316 606.418 563.318 597.611 568.716C588.899 574.114 578.529 577.712 566.503 579.511C554.571 581.311 541.408 582.21 527.014 582.21V536.898C538.188 536.898 546.664 535.43 552.44 532.494C558.312 529.653 562.289 525.203 564.372 519.142C566.455 513.176 567.497 505.648 567.497 496.557V455.08C567.497 447.788 568.823 440.922 571.474 434.483C574.126 427.949 579.05 422.22 586.247 417.295C593.444 412.277 603.719 408.347 617.071 405.506C630.423 402.57 647.753 401.102 669.06 401.102ZM527.014 222.693C541.408 222.693 554.571 223.593 566.503 225.392C578.529 227.191 588.899 230.79 597.611 236.188C606.418 241.585 613.236 249.587 618.065 260.193C622.99 270.705 625.452 284.72 625.452 302.239V333.631C625.452 348.214 628.624 358.773 634.969 365.307C641.408 371.841 652.772 375.108 669.06 375.108V403.659C647.753 403.659 630.423 402.239 617.071 399.398C603.719 396.462 593.444 392.532 586.247 387.608C579.05 382.589 574.126 376.86 571.474 370.42C568.823 363.886 567.497 357.021 567.497 349.824V308.347C567.497 299.161 566.455 291.585 564.372 285.619C562.289 279.559 558.312 275.108 552.44 272.267C546.664 269.331 538.188 267.864 527.014 267.864V222.693ZM669.06 375.108V429.653H618.065V375.108H669.06Z" fill="#632AAC"/>
</svg>
